<?xml version="1.0" encoding="UTF-8"?>
<svg id="Layer_2" data-name="Layer 2" xmlns="http://www.w3.org/2000/svg" viewBox="0 0 120 24">
  <defs>
    <style>
      .cls-1 {
        fill: #fff;
      }
    </style>
  </defs>
  <g id="Layer_1-2" data-name="Layer 1">
    <path class="cls-1" d="M0,0v24h120V0H0ZM22.19,10.6l-4.53,4.19,1.2,6.06c.08.38-.08.78-.39,1-.17.13-.38.19-.59.19-.17,0-.34-.04-.49-.13l-5.39-3.02-5.39,3.02c-.34.19-.76.17-1.08-.06-.32-.23-.47-.62-.39-1l1.2-6.06L1.81,10.6c-.29-.27-.39-.67-.27-1.04s.45-.64.83-.68l6.13-.73,2.59-5.61c.16-.35.52-.58.91-.58s.74.23.91.58l2.59,5.61,6.13.73c.39.05.71.31.83.68s.01.78-.27,1.04ZM46.19,10.6l-4.53,4.19,1.2,6.06c.08.38-.08.78-.39,1-.17.13-.38.19-.59.19-.17,0-.34-.04-.49-.13l-5.39-3.02-5.39,3.02c-.34.19-.76.17-1.08-.06-.32-.23-.47-.62-.39-1l1.2-6.06-4.53-4.19c-.29-.27-.39-.67-.27-1.04s.45-.64.83-.68l6.13-.73,2.59-5.61c.16-.35.52-.58.91-.58s.74.23.91.58l2.59,5.61,6.13.73c.39.05.71.31.83.68s.01.78-.27,1.04ZM70.19,10.6l-4.53,4.19,1.2,6.06c.08.38-.08.78-.39,1-.17.13-.38.19-.59.19-.17,0-.34-.04-.49-.13l-5.39-3.02-5.39,3.02c-.34.19-.76.17-1.08-.06-.32-.23-.47-.62-.39-1l1.2-6.06-4.53-4.19c-.29-.27-.39-.67-.27-1.04s.45-.64.83-.68l6.13-.73,2.59-5.61c.16-.35.52-.58.91-.58s.74.23.91.58l2.59,5.61,6.13.73c.39.05.71.31.83.68.12.37.01.78-.27,1.04ZM94.19,10.6l-4.53,4.19,1.2,6.06c.08.38-.08.78-.39,1-.17.13-.38.19-.59.19-.17,0-.34-.04-.49-.13l-5.39-3.02-5.39,3.02c-.34.19-.76.17-1.08-.06-.32-.23-.47-.62-.39-1l1.2-6.06-4.53-4.19c-.29-.27-.39-.67-.27-1.04.12-.37.45-.64.83-.68l6.13-.73,2.59-5.61c.16-.35.52-.58.91-.58s.75.23.91.58l2.59,5.61,6.13.73c.39.05.71.31.83.68.12.37.01.78-.27,1.04ZM118.19,10.6l-4.53,4.19,1.2,6.06c.08.38-.08.78-.39,1-.17.13-.38.19-.59.19-.17,0-.34-.04-.49-.13l-5.39-3.02-5.39,3.02c-.34.19-.76.17-1.08-.06-.19-.14-.31-.33-.37-.54-.08-.15-.12-.33-.08-.51l1.21-5.78.04-.23-3.28-3.04-1.56-1.36c-.22-.2-.31-.5-.22-.79.08-.26.3-.45.56-.5.15-.13.33-.21.53-.23l6.13-.73,2.59-5.61c.16-.35.52-.58.91-.58s.75.23.91.58l2.59,5.61,6.13.73c.39.05.71.31.83.68.12.37.01.78-.27,1.04Z"/>
  </g>
</svg>