<svg width="48" height="48" viewBox="0 0 48 48" fill="none" xmlns="http://www.w3.org/2000/svg">
    <path d="M0 15C0 6.71573 6.71573 0 15 0H33C41.2843 0 48 6.71573 48 15V33C48 41.2843 41.2843 48 33 48H15C6.71573 48 0 41.2843 0 33V15Z" fill="#2E3A55"/>
    <path d="M12.585 15.6301C12.585 14.9001 12.845 14.2901 13.355 13.8101C13.865 13.3301 14.535 13.0901 15.355 13.0901C16.175 13.0901 16.815 13.3201 17.315 13.8001C17.825 14.2801 18.085 14.9201 18.085 15.6901C18.085 16.4001 17.835 16.9801 17.335 17.4501C16.825 17.9301 16.145 18.1801 15.305 18.1801H15.285C14.475 18.1801 13.825 17.9401 13.325 17.4501C12.825 16.9601 12.575 16.3601 12.575 15.6201L12.585 15.6301ZM12.875 34.9101V20.1901H17.765V34.9101H12.875ZM20.475 34.9101H25.365V26.6901C25.365 26.1801 25.425 25.7801 25.545 25.5001C25.755 25.0001 26.065 24.5801 26.485 24.2301C26.905 23.8801 27.425 23.7101 28.065 23.7101C29.715 23.7101 30.535 24.8201 30.535 27.0401V34.9101H35.425V26.4701C35.425 24.3001 34.915 22.6501 33.885 21.5201C32.855 20.3901 31.495 19.8301 29.805 19.8301C27.915 19.8301 26.435 20.6501 25.375 22.2801V22.3201H25.355L25.375 22.2801V20.1901H20.485C20.515 20.6601 20.525 22.1201 20.525 24.5701C20.525 27.0201 20.515 30.4701 20.485 34.9001L20.475 34.9101Z" fill="#EFEFFF"/>
</svg>
