<svg width="48" height="48" viewBox="0 0 48 48" fill="none" xmlns="http://www.w3.org/2000/svg">
    <path d="M0 15C0 6.71573 6.71573 0 15 0H33C41.2843 0 48 6.71573 48 15V33C48 41.2843 41.2843 48 33 48H15C6.71573 48 0 41.2843 0 33V15Z" fill="#2E3A55"/>
    <path d="M20.12 23.9901C20.12 21.8401 21.86 20.1001 24.01 20.1001C26.16 20.1001 27.9 21.8401 27.9 23.9901C27.9 26.1401 26.16 27.8801 24.01 27.8801C21.86 27.8801 20.12 26.1401 20.12 23.9901ZM18.02 23.9901C18.02 27.3001 20.7 29.9801 24.01 29.9801C27.32 29.9801 30 27.3001 30 23.9901C30 20.6801 27.32 18.0001 24.01 18.0001C20.7 18.0001 18.02 20.6801 18.02 23.9901ZM28.83 17.7601C28.83 18.5301 29.46 19.1601 30.23 19.1601C31 19.1601 31.63 18.5301 31.63 17.7601C31.63 16.9901 31 16.3601 30.23 16.3601C29.46 16.3601 28.83 16.9901 28.83 17.7601ZM19.29 33.4801C18.15 33.4301 17.54 33.2401 17.12 33.0801C16.58 32.8701 16.19 32.6201 15.78 32.2101C15.37 31.8001 15.12 31.4101 14.91 30.8701C14.75 30.4601 14.56 29.8401 14.51 28.7001C14.45 27.4701 14.44 27.1001 14.44 23.9901C14.44 20.8801 14.45 20.5101 14.51 19.2801C14.56 18.1401 14.75 17.5301 14.91 17.1101C15.12 16.5701 15.37 16.1801 15.78 15.7701C16.19 15.3601 16.58 15.1101 17.12 14.9001C17.53 14.7401 18.15 14.5501 19.29 14.5001C20.52 14.4401 20.89 14.4301 24 14.4301C27.11 14.4301 27.48 14.4401 28.71 14.5001C29.85 14.5501 30.46 14.7401 30.88 14.9001C31.42 15.1101 31.81 15.3601 32.22 15.7701C32.63 16.1801 32.88 16.5701 33.09 17.1101C33.25 17.5201 33.44 18.1401 33.49 19.2801C33.55 20.5101 33.56 20.8801 33.56 23.9901C33.56 27.1001 33.55 27.4701 33.49 28.7001C33.44 29.8401 33.25 30.4501 33.09 30.8701C32.88 31.4101 32.63 31.8001 32.22 32.2101C31.81 32.6201 31.42 32.8701 30.88 33.0801C30.47 33.2401 29.85 33.4301 28.71 33.4801C27.48 33.5401 27.11 33.5501 24 33.5501C20.89 33.5501 20.52 33.5401 19.29 33.4801ZM19.19 12.4001C17.95 12.4601 17.1 12.6501 16.36 12.9401C15.59 13.2401 14.94 13.6401 14.29 14.2901C13.64 14.9401 13.24 15.5901 12.94 16.3601C12.65 17.1001 12.45 17.9501 12.4 19.1901C12.34 20.4301 12.33 20.8301 12.33 24.0001C12.33 27.1701 12.34 27.5601 12.4 28.8101C12.46 30.0501 12.65 30.9001 12.94 31.6401C13.24 32.4101 13.64 33.0601 14.29 33.7101C14.94 34.3601 15.59 34.7601 16.36 35.0601C17.1 35.3501 17.95 35.5501 19.19 35.6001C20.43 35.6601 20.83 35.6701 24 35.6701C27.17 35.6701 27.56 35.6601 28.81 35.6001C30.05 35.5401 30.9 35.3501 31.64 35.0601C32.41 34.7601 33.06 34.3601 33.71 33.7101C34.36 33.0601 34.76 32.4101 35.06 31.6401C35.35 30.9001 35.55 30.0501 35.6 28.8101C35.66 27.5701 35.67 27.1701 35.67 24.0001C35.67 20.8301 35.66 20.4401 35.6 19.1901C35.54 17.9501 35.35 17.1001 35.06 16.3601C34.76 15.5901 34.36 14.9401 33.71 14.2901C33.06 13.6401 32.41 13.2401 31.65 12.9401C30.91 12.6501 30.06 12.4501 28.82 12.4001C27.58 12.3401 27.18 12.3301 24.01 12.3301C20.84 12.3301 20.45 12.3401 19.2 12.4001" fill="#EFEFFF"/>
</svg>
