<svg width="48" height="48" viewBox="0 0 48 48" fill="none" xmlns="http://www.w3.org/2000/svg">
    <path d="M0 15C0 6.71573 6.71573 0 15 0H33C41.2843 0 48 6.71573 48 15V33C48 41.2843 41.2843 48 33 48H15C6.71573 48 0 41.2843 0 33V15Z" fill="#2E3A55"/>
    <path d="M24.5436 32.5565L19.4536 32.4665C17.8036 32.4365 16.1536 32.4965 14.5436 32.1665C12.0836 31.6665 11.9136 29.2065 11.7336 27.1365C11.4836 24.2365 11.5836 21.2765 12.0536 18.3965C12.3236 16.7865 13.3736 15.8165 15.0036 15.7165C20.4936 15.3365 26.0236 15.3765 31.5036 15.5565C32.0836 15.5765 32.6636 15.6665 33.2336 15.7665C36.0536 16.2565 36.1236 19.0465 36.3036 21.3965C36.4836 23.7665 36.4136 26.1565 36.0636 28.5065C35.7836 30.4565 35.2536 32.0965 32.9936 32.2465C30.1636 32.4565 27.4036 32.6165 24.5736 32.5665C24.5736 32.5565 24.5536 32.5565 24.5536 32.5565H24.5436ZM21.5536 27.6165C23.6836 26.3965 25.7736 25.1965 27.8836 23.9765C25.7536 22.7565 23.6636 21.5565 21.5536 20.3365V27.6165Z" fill="#EFEFFF"/>
</svg>
