<svg width="48" height="48" viewBox="0 0 48 48" fill="none" xmlns="http://www.w3.org/2000/svg">
    <path d="M0 15C0 6.71573 6.71573 0 15 0H33C41.2843 0 48 6.71573 48 15V33C48 41.2843 41.2843 48 33 48H15C6.71573 48 0 41.2843 0 33V15Z" fill="#2E3A55"/>
    <path d="M11.8266 12.9837C11.8163 12.9981 12.6471 14.0593 13.6676 15.3365C14.6881 16.6137 16.8572 19.3314 18.488 21.3721L21.452 25.0837L21.2623 25.2854C21.1546 25.3958 18.9751 27.5998 16.4214 30.183C13.8676 32.7711 11.7702 34.903 11.7651 34.927C11.7548 34.951 12.201 34.9702 12.842 34.9654L13.9342 34.9606L14.2932 34.5909C14.4932 34.3892 16.3496 32.5118 18.4213 30.4135C20.493 28.3152 22.2468 26.5386 22.3186 26.4618L22.4468 26.3225L23.4724 27.6094C24.0365 28.3152 25.5903 30.2647 26.9236 31.9356L29.3543 34.9702H33.0722C36.1644 34.9702 36.7849 34.9606 36.7644 34.9078C36.749 34.8694 35.8055 33.6786 34.667 32.2525C33.5286 30.8312 32.2261 29.1987 31.7748 28.6321C31.3184 28.0655 29.98 26.3802 28.7903 24.8965C27.6005 23.408 26.6262 22.1692 26.6262 22.15C26.6262 22.1163 32.9132 15.7254 35.0516 13.5887L35.6619 12.9789H34.5388L33.4209 12.9837L32.1132 14.309C31.3953 15.0388 29.6364 16.825 28.2005 18.2703L25.6006 20.9015L22.4468 16.9546L19.2879 13.0029L15.5701 12.9789C13.524 12.9645 11.8369 12.9693 11.8266 12.9837ZM20.6366 17.2379C21.852 18.7648 23.7289 21.1128 24.8057 22.4621C25.8826 23.8065 28.2723 26.8027 30.1184 29.1123C31.9645 31.4266 33.4927 33.3425 33.5183 33.3761C33.5491 33.4193 33.185 33.4337 31.8568 33.4337H30.1595L26.7954 29.2179C19.0315 19.5043 15.1137 14.5971 15.0675 14.525C15.0368 14.4818 15.3855 14.4674 16.7239 14.4674H18.4213L20.6366 17.2379Z" fill="#EFEFFF"/>
</svg>
