<svg xmlns="http://www.w3.org/2000/svg" width="87" height="36" fill="none"><path fill="#fff" fill-rule="evenodd" d="M9.091 16.194c-1.874-.692-2.902-1.23-2.902-2.075 0-.718.59-1.128 1.644-1.128 1.926 0 3.903.743 5.264 1.41l.77-4.74C12.79 9.147 10.58 8.3 7.525 8.3c-2.157 0-3.954.564-5.238 1.615-1.336 1.102-2.03 2.69-2.03 4.612 0 3.485 2.132 4.971 5.6 6.226 2.234.795 2.979 1.359 2.979 2.23 0 .87-.72 1.332-2.03 1.332-1.617 0-4.288-.794-6.034-1.82L0 27.29c1.49.845 4.263 1.716 7.14 1.716 2.285 0 4.186-.538 5.47-1.563 1.438-1.127 2.183-2.792 2.183-4.945 0-3.561-2.183-5.047-5.702-6.303ZM27.335 13.4l.77-4.715h-4.067V2.963l-5.469.898-.79 4.825-1.923.311-.72 4.404h2.636v9.25c0 2.408.616 4.074 1.874 5.099 1.053.845 2.568 1.255 4.7 1.255 1.644 0 2.645-.282 3.339-.461v-4.997c-.386.103-1.258.282-1.85.282-1.258 0-1.797-.64-1.797-2.101V13.4h3.297ZM39.55 8.41c-1.798 0-3.236.941-3.801 2.632l-.385-2.357H29.79V28.62h6.369V15.68c.796-.973 1.926-1.325 3.467-1.325.334 0 .693 0 1.13.076V8.564a5.195 5.195 0 0 0-1.207-.154Zm5.958-1.698c1.85 0 3.339-1.512 3.339-3.356 0-1.845-1.49-3.357-3.339-3.357a3.356 3.356 0 0 0-3.364 3.357c0 1.87 1.49 3.356 3.364 3.356Zm-3.21 1.973h6.395v19.935h-6.395V8.686Zm24.516 1.794c-1.13-1.461-2.696-2.178-4.7-2.178-1.849 0-3.467.768-4.982 2.383l-.334-1.999h-5.599V36l6.37-1.05v-6.406a9.75 9.75 0 0 0 2.875.46c1.592 0 3.904-.41 5.702-2.356 1.72-1.87 2.594-4.766 2.594-8.584 0-3.382-.642-5.944-1.926-7.584Zm-5.29 12.299c-.514.974-1.31 1.486-2.235 1.486a3.778 3.778 0 0 1-1.72-.384V14.4c1.078-1.127 2.054-1.255 2.414-1.255 1.617 0 2.414 1.742 2.414 5.15 0 1.947-.283 3.459-.873 4.484ZM87 18.474c0-3.177-.693-5.688-2.055-7.456-1.386-1.794-3.467-2.716-6.112-2.716-5.419 0-8.783 3.997-8.783 10.403 0 3.587.9 6.278 2.671 7.994 1.592 1.538 3.878 2.306 6.831 2.306 2.723 0 5.24-.64 6.832-1.69l-.693-4.357c-1.567.846-3.39 1.307-5.445 1.307-1.233 0-2.08-.256-2.696-.795-.668-.563-1.053-1.486-1.181-2.792h10.555c.025-.308.077-1.743.077-2.204H87Zm-10.684-1.69c.18-2.845.95-4.177 2.414-4.177 1.464 0 2.183 1.358 2.286 4.176h-4.7Z" clip-rule="evenodd"/></svg>
