<svg fill="none" height="36" viewBox="0 0 86 36" width="86" xmlns="http://www.w3.org/2000/svg" xmlns:xlink="http://www.w3.org/1999/xlink"><clipPath id="a"><path d="m0 0h86v36h-86z"/></clipPath><g clip-path="url(#a)"><path clip-rule="evenodd" d="m86 18.6008c0-6.1522-2.9622-11.00667-8.6239-11.00667s-9.1255 4.85447-9.1255 10.95857c0 7.2337 4.0611 10.8866 9.89 10.8866 2.8427 0 4.9927-.6489 6.6172-1.5621v-4.8064c-1.6245.817-3.4878 1.3217-5.8528 1.3217s-4.3717-.8171-4.6344-3.6528h11.6816c0-.3125.0478-1.5621.0478-2.1389zm-11.8011-2.283c0-2.7157 1.6483-3.8452 3.1533-3.8452s3.01 1.1295 3.01 3.8452zm-15.1695-8.72367c-2.3411 0-3.8461 1.10547-4.6822 1.8745l-.3105-1.48999h-5.2556v28.02136l5.9722-1.2737.0239-6.8011c.86.6249 2.1261 1.5141 4.2284 1.5141 4.2761 0 8.17-3.4607 8.17-11.0788-.0239-6.9693-3.9656-10.76637-8.1462-10.76637zm-1.4333 16.55807c-1.4094 0-2.2455-.5047-2.8189-1.1295l-.0239-8.9159c.6211-.6969 1.4811-1.1776 2.8428-1.1776 2.1739 0 3.6789 2.4513 3.6789 5.5995s-1.4811 5.6235-3.6789 5.6235zm-17.0328-17.97596 5.9961-1.29774v-4.8785l-5.9961 1.2737zm0 1.82643h5.9961v21.02803h-5.9961zm-6.4261 1.77837-.3822-1.77837h-5.16v21.02803h5.9722v-14.251c1.4095-1.8505 3.7984-1.514 4.5389-1.2497v-5.52733c-.7644-.28838-3.5594-.81709-4.9689 1.77837zm-11.9444-6.99332-5.8289 1.24966-.0239 19.24972c0 3.5567 2.6517 6.1762 6.1872 6.1762 1.9589 0 3.3922-.3605 4.1806-.7931v-4.8785c-.7645.3124-4.5389 1.4179-4.5389-2.1388v-8.5314h4.5389v-5.11883h-4.5389zm-16.14891 11.31908c0-.9372.76444-1.2977 2.03055-1.2977 1.81556 0 4.10886.5527 5.92446 1.538v-5.6475c-1.9828-.79306-3.9417-1.10547-5.92446-1.10547-4.84944 0-8.07444 2.54737-8.07444 6.80107 0 6.6328 9.07778 5.5754 9.07778 8.4352 0 1.1055-.95556 1.466-2.29334 1.466-1.98277 0-4.515-.8171-6.521662-1.9226v5.7197c2.221662.9612 4.467222 1.3698 6.521662 1.3698 4.96886 0 8.38496-2.4753 8.38496-6.7771-.0238-7.1615-9.12551-5.8878-9.12551-8.5794z" fill="#fff" fill-rule="evenodd"/></g></svg>
